<?xml version="1.0" standalone="no"?>
<!DOCTYPE svg PUBLIC "-//W3C//DTD SVG 20010904//EN"
 "http://www.w3.org/TR/2001/REC-SVG-20010904/DTD/svg10.dtd">
<svg version="1.0" xmlns="http://www.w3.org/2000/svg"
 width="300.000000pt" height="300.000000pt" viewBox="0 0 300.000000 300.000000"
 preserveAspectRatio="xMidYMid meet">
<metadata>
Created by potrace 1.11, written by Peter Selinger 2001-2013
</metadata>
<g transform="translate(0.000000,300.000000) scale(0.100000,-0.100000)"
fill="#000000" stroke="none">
<path d="M885 2108 c-193 -21 -434 -97 -572 -180 -93 -56 -195 -158 -239 -240
-37 -70 -39 -77 -39 -168 0 -88 3 -101 33 -163 84 -171 284 -315 547 -396 183
-56 256 -65 515 -65 261 0 313 7 318 42 7 45 -9 50 -142 45 -215 -10 -473 28
-639 94 -51 20 -96 40 -101 44 -5 5 15 8 45 8 30 0 62 0 72 0 70 1 107 0 137
-1 69 -3 112 0 122 10 7 7 17 6 32 -3 16 -11 41 -13 96 -9 41 3 84 5 95 4 83
-6 95 -3 123 23 35 34 55 34 72 2 11 -21 21 -25 64 -26 50 -2 164 -2 241 0 22
0 72 -1 110 -2 39 -1 104 0 145 3 l75 5 -3 30 c-2 16 -7 34 -11 40 -5 5 -11
24 -15 40 -4 17 -9 39 -13 50 -12 45 16 -3 32 -55 28 -87 42 -110 70 -110 15
0 26 7 30 19 5 18 7 18 31 -6 20 -20 32 -24 57 -19 18 3 57 5 87 5 64 0 131 1
160 1 34 1 99 1 120 0 28 -1 96 -1 123 1 12 0 35 -1 51 -4 19 -3 34 1 47 14
15 15 19 16 30 3 7 -8 24 -14 38 -13 14 1 38 -1 54 -6 38 -10 74 1 88 28 15
26 13 185 -2 203 -12 15 -286 17 -295 3 -3 -5 -13 -5 -24 1 -23 12 -76 13 -98
1 -12 -6 -26 -5 -42 5 -22 12 -23 13 -5 14 44 1 56 23 62 113 6 86 6 86 -21
98 -33 16 -44 6 -65 -57 -21 -62 -43 -76 -73 -47 -30 31 -39 172 -13 238 26
68 84 75 85 10 0 -36 29 -66 58 -63 27 3 27 4 27 84 -1 51 -5 87 -13 97 -18
21 -105 40 -157 35 -58 -7 -98 -38 -129 -99 l-25 -51 -3 68 -3 69 -130 0 -130
0 -35 -102 c-19 -57 -38 -103 -41 -103 -4 0 -13 24 -19 53 -7 28 -21 76 -32
105 l-19 52 -64 0 c-54 0 -66 -3 -75 -20 -12 -22 -5 -60 11 -60 5 0 9 -68 9
-162 0 -89 -2 -159 -5 -156 -3 3 -24 84 -46 179 -57 252 -51 234 -79 237 -14
1 -39 -6 -56 -17 -27 -16 -34 -30 -49 -93 -20 -82 -76 -281 -81 -287 -2 -2 -4
59 -4 137 0 115 3 142 14 142 18 0 23 17 16 60 l-5 35 -63 3 c-38 2 -69 -2
-78 -9 -18 -15 -18 -53 1 -69 9 -7 15 -29 15 -53 l0 -41 -52 87 -53 88 -110
-3 -110 -3 -1 -50 c-1 -27 -2 -58 -3 -67 -1 -20 -21 -25 -21 -5 0 30 -61 135
-97 168 l-40 36 96 18 c124 23 389 31 517 16 54 -6 140 -21 192 -33 101 -23
119 -19 103 26 -11 28 -40 41 -173 76 -209 54 -444 72 -653 48z m-121 -211
c21 -56 20 -64 -4 -42 -14 13 -42 19 -97 23 l-77 5 74 27 c41 15 78 28 81 29
4 0 14 -18 23 -42z m-286 -437 c-19 -15 -21 -22 -13 -46 9 -25 17 -30 60 -35
49 -6 49 -6 10 -8 -56 -2 -69 -13 -60 -47 15 -61 15 -109 1 -128 -14 -18 -16
-18 -44 3 -49 34 -138 136 -161 183 -33 69 -29 158 9 236 31 61 137 172 186
194 13 6 25 16 26 22 2 6 4 -71 5 -172 3 -180 3 -184 -19 -202z m-278 336 c0
-2 -8 -10 -17 -17 -16 -13 -17 -12 -4 4 13 16 21 21 21 13z m490 -52 c14 -37
12 -204 -3 -234 -7 -14 -20 -26 -30 -28 -15 -3 -17 10 -17 142 0 140 1 146 20
146 13 0 24 -10 30 -26z m1407 -201 c-1 -43 -3 -8 -3 77 0 85 2 120 3 78 2
-43 2 -113 0 -155z m-1951 182 c-4 -12 5 -15 52 -15 33 0 64 5 71 13 8 6 2 -6
-12 -28 -37 -57 -57 -119 -57 -177 0 -39 -3 -48 -12 -41 -7 6 -32 13 -56 16
-32 4 -44 1 -52 -11 -16 -27 -12 99 4 146 13 37 56 112 65 112 2 0 1 -7 -3
-15z m427 -33 c21 3 22 0 22 -110 0 -102 2 -115 20 -128 23 -17 60 -11 87 13
23 20 35 63 43 144 6 59 9 66 26 62 12 -3 19 0 20 8 0 8 5 3 10 -10 25 -63
-42 -240 -82 -215 -7 4 -10 3 -5 -4 4 -6 -1 -11 -11 -11 -10 0 -32 -3 -49 -7
-21 -4 -34 -1 -43 10 -18 21 -59 20 -85 -1 -19 -18 -19 -18 -3 7 14 19 17 50
18 150 1 69 3 117 6 107 3 -12 12 -17 26 -15z m347 -17 c0 5 7 -1 17 -14 l16
-24 19 34 c19 34 19 30 -9 -50 -20 -57 -13 -157 14 -176 16 -13 12 -14 -37
-14 -47 0 -53 1 -38 13 24 18 27 156 4 210 -20 48 -20 55 -1 30 8 -10 15 -15
15 -9z m127 -209 c-10 -11 -16 -11 -30 -1 -25 18 -21 79 10 163 l28 73 3 -111
c2 -82 -1 -114 -11 -124z m72 90 c1 -68 5 -94 18 -108 15 -17 14 -18 -28 -18
-39 1 -42 2 -26 14 14 11 17 31 18 132 1 138 16 121 18 -20z m-240 -18 c1 -38
-3 -68 -8 -68 -14 0 -23 -37 -16 -61 4 -11 16 -24 28 -29 14 -6 -21 -8 -98 -8
-66 1 -101 3 -77 5 84 8 141 102 143 237 l1 61 13 -35 c7 -19 14 -65 14 -102z
m369 102 c16 0 20 5 16 18 -3 9 7 -2 21 -25 15 -24 31 -43 35 -43 5 0 11 19
13 43 2 23 4 -11 5 -75 1 -65 0 -118 -2 -118 -2 0 -33 46 -68 102 -88 142 -85
136 -61 116 11 -10 29 -18 41 -18z m239 -7 c-2 -38 -2 -38 38 -38 39 0 40 0
38 35 -2 28 0 31 7 14 12 -31 40 -39 40 -12 0 38 8 15 25 -72 11 -53 25 -93
38 -107 l20 -23 -63 0 c-60 0 -62 1 -47 18 14 15 14 25 4 72 l-12 55 -52 3
-51 3 -13 -56 c-9 -42 -10 -58 -1 -67 21 -21 13 -28 -29 -28 l-41 0 26 31 c14
17 26 36 26 42 0 15 41 167 46 167 2 0 2 -17 1 -37z m291 -189 c15 -12 11 -13
-27 -14 -42 0 -43 1 -28 18 10 10 17 32 17 49 0 16 3 59 8 94 l7 64 3 -99 c2
-80 6 -102 20 -112z m139 99 c-18 -56 -35 -104 -38 -108 -6 -5 -51 130 -65
190 -3 17 -2 17 7 -2 13 -25 35 -30 42 -10 2 6 9 -5 16 -25 7 -21 16 -38 21
-38 5 0 16 23 25 51 9 28 19 49 20 47 2 -2 -10 -49 -28 -105z m-642 -91 l51
-77 74 1 c47 1 56 0 23 -3 -62 -5 -81 -22 -64 -59 15 -34 15 -34 -18 -34 -22
0 -31 6 -41 30 -7 17 -22 37 -34 45 -29 21 -89 19 -117 -4 -24 -19 -25 -19
-48 0 l-23 19 42 0 c62 0 81 13 73 53 -3 17 -12 39 -19 48 -9 10 -14 41 -14
90 l1 74 32 -53 c18 -29 55 -88 82 -130z m775 78 l0 -100 -47 0 c-45 1 -47 2
-28 15 15 12 21 32 26 98 3 45 7 74 7 65 3 -25 32 -23 32 2 0 11 2 20 5 20 3
0 5 -45 5 -100z m123 52 c20 3 22 -2 25 -57 2 -37 9 -66 19 -77 15 -17 13 -18
-47 -18 -60 0 -62 1 -47 18 13 14 17 40 18 103 1 46 4 71 6 56 4 -22 9 -27 26
-25z m149 -10 c2 6 10 -9 17 -33 27 -92 97 -126 146 -73 14 15 25 34 25 42 0
8 3 13 6 9 3 -3 3 -19 -1 -36 -14 -64 -126 -82 -181 -30 -28 26 -54 80 -54
111 0 15 3 17 19 8 14 -7 20 -7 23 2z m-776 -109 c-4 -32 -3 -63 1 -70 5 -6
31 -13 58 -16 43 -3 39 -4 -20 -5 l-71 -2 4 40 c2 22 -1 47 -8 55 -17 20 -3
55 22 55 18 0 19 -4 14 -57z m716 15 c6 -14 5 -16 -7 -12 -8 4 -15 18 -14 33
0 15 3 20 6 11 3 -8 10 -23 15 -32z m-455 0 c-3 -7 -5 -2 -5 12 0 14 2 19 5
13 2 -7 2 -19 0 -25z m150 0 c-3 -8 -6 -5 -6 6 -1 11 2 17 5 13 3 -3 4 -12 1
-19z m393 -97 c22 -8 19 -10 -23 -10 -44 -1 -49 -3 -62 -33 -8 -18 -14 -28
-15 -23 0 6 -3 20 -6 31 -4 16 0 23 17 27 19 5 21 11 16 44 l-6 38 27 -32 c15
-18 39 -36 52 -42z m-477 -4 c7 3 5 -2 -4 -13 -9 -10 -21 -32 -27 -49 -9 -26
-11 -27 -11 -7 -1 12 -10 31 -20 41 -19 19 -19 19 0 24 10 3 19 13 19 23 0 16
2 15 16 -4 9 -13 21 -19 27 -15z m-813 3 c11 -7 1 -9 -35 -9 -44 1 -46 2 -20
9 17 4 32 8 35 9 3 0 12 -4 20 -9z m887 -1 c6 -6 8 -19 6 -30 -5 -18 -7 -17
-19 7 -8 14 -14 28 -14 30 0 8 16 4 27 -7z m-1309 -6 c-10 -2 -28 -2 -40 0
-13 2 -5 4 17 4 22 1 32 -1 23 -4z m1390 0 c-10 -2 -26 -2 -35 0 -10 3 -2 5
17 5 19 0 27 -2 18 -5z m85 0 c-7 -2 -21 -2 -30 0 -10 3 -4 5 12 5 17 0 24 -2
18 -5z m-1158 -13 c-3 -5 -12 -7 -20 -3 -21 7 -19 13 6 13 11 0 18 -4 14 -10z
m745 6 c0 -9 -30 -14 -35 -6 -4 6 3 10 14 10 12 0 21 -2 21 -4z m458 -28 c-15
-44 -15 -44 -20 -4 -3 29 -1 36 13 36 16 0 17 -4 7 -32z m52 -18 c0 -5 -2 -10
-4 -10 -3 0 -8 5 -11 10 -3 6 -1 10 4 10 6 0 11 -4 11 -10z m137 -22 c-3 -7
-5 -2 -5 12 0 14 2 19 5 13 2 -7 2 -19 0 -25z m120 -5 c-3 -10 -5 -4 -5 12 0
17 2 24 5 18 2 -7 2 -21 0 -30z m283 10 c23 -46 23 -49 -4 -18 -27 31 -32 45
-18 45 5 0 15 -12 22 -27z m-197 2 c-3 -9 -8 -14 -10 -11 -3 3 -2 9 2 15 9 16
15 13 8 -4z m95 -10 c-3 -3 -9 2 -12 12 -6 14 -5 15 5 6 7 -7 10 -15 7 -18z
m253 -11 l24 -27 -27 18 c-16 9 -28 21 -28 26 0 14 5 11 31 -17z m-776 -48
c-22 -52 -29 -40 -8 14 9 23 19 38 20 33 2 -5 -4 -26 -12 -47z m-361 6 c-4
-12 -10 -22 -15 -22 -11 0 -12 44 -2 54 12 11 23 -9 17 -32z m-557 -9 c-3 -10
-5 -4 -5 12 0 17 2 24 5 18 2 -7 2 -21 0 -30z m326 31 c9 -9 -4 -35 -14 -28
-5 3 -9 12 -9 20 0 14 12 19 23 8z m770 -30 c6 -34 -11 -41 -23 -9 -14 36 -13
45 4 39 8 -3 16 -16 19 -30z m294 -1 c-3 -10 -5 -4 -5 12 0 17 2 24 5 18 2 -7
2 -21 0 -30z m-1915 -25 c-9 -9 -12 -4 -11 23 0 32 1 33 11 11 8 -17 8 -26 0
-34z m1738 22 c0 -16 -4 -30 -10 -30 -11 0 -14 43 -3 53 11 12 13 8 13 -23z
m-1624 -16 c-4 -9 -9 -15 -11 -12 -3 3 -3 13 1 22 4 9 9 15 11 12 3 -3 3 -13
-1 -22z"/>
</g>
</svg>
